<svg width="520" height="520" viewBox="0 0 520 520" fill="none" xmlns="http://www.w3.org/2000/svg">
<path fill-rule="evenodd" clip-rule="evenodd" d="M260 520C403.595 520 520 403.594 520 260C520 116.406 403.595 0 260 0C147.293 0 51.3369 71.7138 15.2705 172H147.726C152.44 164.913 157.713 158.332 163.546 152.256C176.859 138.112 192.526 127.157 210.555 119.392C228.86 111.627 248.825 107.744 270.458 107.744C288.486 107.744 304.847 110.24 319.546 115.232C325.244 117.059 329.992 120.991 334.53 124.749C341.701 130.688 348.351 136.194 357.402 132.288C372.183 125.909 341.178 169.728 341.178 169.728C331.338 171.98 326.596 167.198 321.514 162.074C318.461 158.995 315.286 155.794 310.811 153.92C299.162 148.928 286.129 146.432 271.707 146.432C257.007 146.432 243.142 149.344 230.106 155.168C217.071 160.992 205.563 169.173 195.579 179.712C185.594 190.251 177.691 202.592 171.866 216.736C169.332 223.072 179.495 243.508 187.959 260.528C198.019 280.756 205.679 296.16 186.771 277.333C151.956 242.667 166.042 293.28 171.034 307.424C176.304 321.291 183.652 333.355 193.083 343.616C202.79 353.877 214.436 361.92 228.026 367.744C241.617 373.568 256.868 376.48 273.787 376.48C289.041 376.48 302.628 374.123 314.554 369.408C319.019 367.643 321.664 364.013 324.206 360.525C328.455 354.695 332.414 349.262 344.09 353.6C344.09 353.6 359.955 381.333 361.146 389.376C349.371 384.264 347.804 388.508 346.016 393.348C344.992 396.122 343.895 399.092 340.762 400.608C332.165 404.768 322.043 408.235 310.395 411.008C299.023 413.781 286.544 415.168 272.955 415.168C249.657 414.891 228.583 410.731 209.723 402.688C191.14 394.645 175.334 383.691 162.298 369.824C156.201 363.338 150.741 356.396 145.918 349H15.6323C51.9751 448.763 147.668 520 260 520ZM136.996 191H9.25537C3.22217 212.974 0.000488281 236.111 0.000488281 260C0.000488281 284.252 3.32129 307.729 9.53223 330H135.393C134.172 327.375 133.018 324.703 131.93 321.984C130.998 319.524 129.431 315.666 127.501 310.914L127.453 310.795L127.448 310.785C114.991 280.124 87.5981 212.702 117.436 242.667C138.985 264.307 136.63 250.338 133.573 232.197C131.732 221.277 129.637 208.846 132.346 201.76C133.788 198.076 135.338 194.489 136.996 191Z" fill="white"/>
</svg>
