<svg width="271" height="312" viewBox="0 0 271 312" fill="none" xmlns="http://www.w3.org/2000/svg">
<path d="M270.434 281.632C251.91 273.589 258.648 288.704 250.05 292.864C241.453 297.024 231.331 300.491 219.682 303.264C208.311 306.037 195.833 307.424 182.243 307.424C158.945 307.147 137.871 302.987 119.011 294.944C100.428 286.901 84.622 275.947 71.5865 262.08C58.551 248.213 48.4296 232.267 41.2185 214.24C34.2847 195.936 -7.79518 100.256 26.7242 134.923C61.2436 169.589 34.4234 112.875 41.6345 94.016C49.123 74.88 59.5216 58.3787 72.8345 44.512C86.1474 30.368 101.815 19.4133 119.843 11.648C138.148 3.88267 158.113 0 179.747 0C197.774 0 214.135 2.49599 228.834 7.48798C243.534 12.2027 251.91 30.9226 266.69 24.544C281.471 18.1654 250.466 61.984 250.466 61.984C234.715 65.5894 232.025 51.168 220.098 46.176C208.45 41.184 195.417 38.688 180.995 38.688C166.295 38.688 152.43 41.6 139.395 47.424C126.359 53.248 114.851 61.4293 104.867 71.968C94.8819 82.5067 86.9789 94.848 81.1545 108.992C75.6075 122.859 130.876 204.256 96.0598 169.589C61.2436 134.923 75.3302 185.536 80.3225 199.68C85.5922 213.547 92.9406 225.611 102.371 235.872C112.078 246.133 123.724 254.176 137.315 260C150.905 265.824 166.156 268.736 183.075 268.736C198.329 268.736 211.916 266.379 223.842 261.664C235.769 256.949 234.715 238.923 253.378 245.856C253.378 245.856 269.243 273.589 270.434 281.632Z" fill="#0D4C92"/>
<path d="M257.146 285.376C238.621 277.333 245.36 292.448 236.762 296.608C228.164 300.768 218.043 304.235 206.394 307.008C195.023 309.781 182.544 311.168 168.954 311.168C145.656 310.891 124.582 306.731 105.722 298.688C87.1394 290.645 71.3335 279.691 58.2979 265.824C45.2624 251.957 35.1411 236.011 27.9299 217.984C20.9961 199.68 -21.0838 104 13.4356 138.667C47.955 173.333 21.1348 116.619 28.3459 97.76C35.8344 78.624 46.233 62.1227 59.5459 48.256C72.8588 34.112 88.5262 23.1574 106.554 15.392C124.859 7.6267 144.825 3.74403 166.458 3.74403C184.486 3.74403 200.846 6.24003 215.546 11.232C230.245 15.9467 238.621 34.6666 253.402 28.288C268.183 21.9094 237.178 65.728 237.178 65.728C221.426 69.3335 218.736 54.912 206.81 49.92C195.161 44.928 182.128 42.432 167.706 42.432C153.006 42.432 139.142 45.344 126.106 51.168C113.07 56.992 101.563 65.1734 91.578 75.712C81.5933 86.2507 73.6903 98.592 67.8659 112.736C62.3189 126.603 117.587 208 82.7712 173.333C47.955 138.667 62.0416 189.28 67.0339 203.424C72.3036 217.291 79.652 229.355 89.082 239.616C98.7893 249.877 110.436 257.92 124.026 263.744C137.616 269.568 152.868 272.48 169.786 272.48C185.04 272.48 198.628 270.123 210.554 265.408C222.48 260.693 221.426 242.667 240.09 249.6C240.09 249.6 255.954 277.333 257.146 285.376Z" fill="white"/>
</svg>
