<svg width="84" height="84" viewBox="0 0 84 84" fill="none" xmlns="http://www.w3.org/2000/svg">
<g clip-path="url(#clip0_86_14)">
<path fill-rule="evenodd" clip-rule="evenodd" d="M41.635 0C64.6294 0 83.27 18.6406 83.27 41.635C83.27 64.6294 64.6294 83.27 41.635 83.27C18.6406 83.27 0 64.6294 0 41.635C0 18.6406 18.6406 0 41.635 0ZM42.9019 13.8784C48.6828 13.8784 53.971 15.8987 57.7922 19.5671C61.3881 23.0197 63.4508 27.7548 63.451 32.5578C63.451 38.7016 61.7384 44.2961 58.6289 48.31C55.4227 52.4482 50.8675 54.7275 45.8025 54.7275C43.1157 54.7275 40.3545 53.6107 38.6395 51.9589C38.0779 54.1754 37.1614 57.7813 36.8994 58.7349C36.5762 59.9074 33.4008 70.2838 29.8484 69.3293C26.6866 68.4798 28.5968 57.8256 28.914 56.4767C29.3796 54.5149 31.534 45.3855 32.4717 41.4121C32.6384 40.7055 32.7667 40.1619 32.8401 39.8507C32.5447 39.1455 31.8921 37.3088 31.8921 34.8532C31.8921 29.8461 34.9174 25.924 38.7791 25.924C41.8177 25.924 43.8595 28.1557 43.8595 31.4769C43.8595 33.4165 43.1092 35.8471 42.3147 38.4207L42.312 38.4293C41.8758 39.8402 41.4251 41.2996 41.0946 42.6987C40.802 43.937 41.0418 45.1251 41.7692 46.0449C42.5392 47.0179 43.7597 47.5759 45.1182 47.5759C48.2599 47.5759 50.3065 45.1588 51.4703 43.1311C53.1451 40.2128 54.0672 36.2484 54.0672 31.9676C54.0672 25.1839 49.4613 20.9696 42.0466 20.9696C32.7018 20.9696 27.6598 28.166 27.6598 34.9372C27.6598 37.2168 28.2428 38.9684 29.4947 40.4497C30.1819 41.2595 30.4365 41.8189 30.1214 42.9818L30.091 43.1031C29.9318 43.7401 29.6264 44.9621 29.4895 45.4769C29.2388 46.4353 28.5153 47.0328 27.6022 47.0328C27.3155 47.0328 27.0231 46.9729 26.7325 46.8538C22.4041 45.0893 19.8193 40.3464 19.8193 34.167C19.8193 29.2454 21.9402 24.2766 25.639 20.5345C28.6402 17.4981 34.0714 13.8784 42.9019 13.8784Z" fill="url(#paint0_linear_86_14)"/>
</g>
<defs>
<linearGradient id="paint0_linear_86_14" x1="41.635" y1="0" x2="41.635" y2="83.27" gradientUnits="userSpaceOnUse">
<stop stop-color="white"/>
<stop offset="1" stop-color="white" stop-opacity="0"/>
</linearGradient>
<clipPath id="clip0_86_14">
<rect width="83.27" height="83.27" fill="white"/>
</clipPath>
</defs>
</svg>
