<svg width="84" height="84" viewBox="0 0 84 84" fill="none" xmlns="http://www.w3.org/2000/svg">
<path d="M41.6366 83.6079C18.6922 83.6079 0 64.9156 0 41.9713C0 19.0269 18.6922 0.334656 41.6366 0.334656C64.581 0.334656 83.2732 19.0269 83.2732 41.9713C83.2732 64.9156 64.581 83.6079 41.6366 83.6079ZM76.7545 47.6651C75.5366 47.2825 65.7494 44.3576 54.5934 46.1453C59.2437 58.9278 61.1408 69.3369 61.5077 71.5046C69.4889 66.1101 75.1671 57.5564 76.7545 47.6651ZM55.5302 74.7575C55.002 71.6425 52.9279 60.7702 47.9393 47.8004L47.7103 47.8654C27.6233 54.8604 20.441 68.78 19.8164 70.0812C25.8095 74.7835 33.4108 77.5888 41.6366 77.5888C46.5575 77.5888 51.2469 76.5869 55.5146 74.7679L55.5302 74.7575ZM15.2208 65.8108C16.0197 64.416 25.7783 48.2714 44.1296 42.3356C44.5902 42.1768 45.0638 42.0415 45.5244 41.9166C44.6292 39.8842 43.6534 37.8648 42.6385 35.8871C24.8831 41.1854 7.65593 40.9694 6.09976 40.9277L6.08675 42.0129C6.08675 51.1495 9.54259 59.4977 15.2234 65.7978L15.2208 65.8108ZM6.81799 34.7343C8.4184 34.7629 23.0667 34.828 39.6979 30.4119C33.8037 19.9325 27.4463 11.1237 26.5121 9.83561C16.561 14.5275 9.13663 23.6876 6.81799 34.7213V34.7343ZM33.3171 7.45191C34.2929 8.78168 40.757 17.5618 46.5705 28.2702C59.2151 23.5419 64.581 16.3413 65.2211 15.4357C58.9314 9.83561 50.677 6.46304 41.6366 6.46304C38.7767 6.46304 35.9844 6.79874 33.3171 7.45191V7.45191ZM69.1662 19.5395C68.4194 20.5414 62.4549 28.1869 49.3081 33.5529C50.1331 35.26 50.9346 36.9697 51.6684 38.7158C51.9521 39.3403 52.1811 39.9649 52.4257 40.5478C64.2609 39.0567 76.0232 41.456 77.2021 41.7006C77.1318 33.2978 74.1522 25.5977 69.1896 19.5526L69.1662 19.5395Z" fill="url(#paint0_linear_2_263)"/>
<defs>
<linearGradient id="paint0_linear_2_263" x1="41.6366" y1="0.334656" x2="41.6366" y2="83.6079" gradientUnits="userSpaceOnUse">
<stop stop-color="white"/>
<stop offset="1" stop-color="white" stop-opacity="0"/>
</linearGradient>
</defs>
</svg>
