<svg width="84" height="93" viewBox="0 0 84 93" fill="none" xmlns="http://www.w3.org/2000/svg">
<path d="M73.2545 0C78.6618 0 83.0165 4.37202 83.2732 9.52271V92.2855L72.9834 83.5443L67.3367 78.408L61.1622 73.0295L63.7318 81.5025H9.76207C4.36914 81.5025 0 77.416 0 71.9798V9.54001C0 4.38933 4.37202 0.0173035 9.77938 0.0173035H73.2256L73.2545 0ZM49.7303 21.8544H49.6092L48.8277 22.6215C56.8046 24.9344 60.6633 28.5393 60.6633 28.5393C55.527 25.9697 50.8839 24.6777 46.2581 24.1528C42.9243 23.6424 39.5732 23.9135 36.7498 24.1528H35.9683C34.1658 24.1528 30.3215 24.9344 25.168 26.9906C23.3799 27.7722 22.3446 28.2826 22.3446 28.2826C22.3446 28.2826 26.1889 24.421 34.6907 22.3648L34.1658 21.8544C34.1658 21.8544 27.7375 21.5977 20.7988 26.7368C20.7988 26.7368 13.8601 38.8291 13.8601 53.7274C13.8601 53.7274 17.7044 60.4124 28.2509 60.6662C28.2509 60.6662 29.7967 58.6243 31.3453 56.8219C25.4275 55.0194 23.1146 51.4145 23.1146 51.4145C23.1146 51.4145 23.6395 51.6712 24.4066 52.1817H24.6316C24.7527 52.1817 24.8133 52.2422 24.8709 52.3028V52.3316C24.9315 52.3922 24.9921 52.4354 25.0959 52.4354C26.3735 52.9603 27.6337 53.4708 28.6719 53.9812C30.4744 54.7484 32.7729 55.527 35.5962 56.0403C39.1723 56.5652 43.2703 56.8075 47.9423 56.0403C50.2408 55.5155 52.5537 55.0194 54.8666 53.9812C56.3547 53.2141 58.2004 52.4499 60.2278 51.1434C60.2278 51.1434 57.9293 54.7483 51.7548 56.5508C53.018 58.3388 54.8031 60.3951 54.8031 60.3951C65.3612 60.1557 69.4621 53.4708 69.6871 53.7563C69.6871 38.8724 62.7022 26.7657 62.7022 26.7657C56.4239 22.0937 50.5349 21.9149 49.4996 21.9149L49.7101 21.8399L49.7303 21.8544ZM50.3763 38.8291C53.0814 38.8291 55.2588 41.1276 55.2588 43.951C55.2588 46.806 53.067 49.1016 50.3763 49.1016C47.6712 49.1016 45.4938 46.8031 45.4938 43.9798C45.4938 41.1247 47.6856 38.8291 50.3763 38.8291ZM32.9084 38.8291C35.5962 38.8291 37.7765 41.1276 37.7765 43.951C37.7765 46.806 35.5847 49.1016 32.894 49.1016C30.1889 49.1016 27.9971 46.8031 27.9971 43.9798C27.9971 41.1247 30.1889 38.8291 32.894 38.8291H32.9084Z" fill="url(#paint0_linear_4_269)"/>
<defs>
<linearGradient id="paint0_linear_4_269" x1="41.6366" y1="0" x2="41.6366" y2="92.2855" gradientUnits="userSpaceOnUse">
<stop stop-color="white"/>
<stop offset="1" stop-color="white" stop-opacity="0"/>
</linearGradient>
</defs>
</svg>
