<svg width="84" height="84" viewBox="0 0 84 84" fill="none" xmlns="http://www.w3.org/2000/svg">
<path d="M41.6366 0.285461C30.3178 0.285461 28.9072 0.340116 24.4776 0.527504C20.0297 0.746124 17.0211 1.43582 14.3664 2.46645C11.6285 3.53873 9.29653 4.96236 6.99322 7.27868C4.67429 9.582 3.23765 11.9139 2.18099 14.6519C1.15036 17.3066 0.460663 20.3152 0.242043 24.763C0.0416418 29.1953 0 30.6033 0 41.9221C0 53.2408 0.0546549 54.6514 0.242043 59.0811C0.460663 63.5159 1.15036 66.5376 2.18099 69.1922C3.25327 71.9302 4.6769 74.2621 6.99322 76.5655C9.29653 78.8844 11.6285 80.321 14.3664 81.3777C17.0211 82.3953 20.0427 83.098 24.4776 83.3166C28.9098 83.517 30.3178 83.5587 41.6366 83.5587C52.9554 83.5587 54.366 83.504 58.7956 83.3166C63.2305 83.098 66.2521 82.3927 68.9068 81.3777C71.6447 80.3054 73.9767 78.8818 76.28 76.5655C78.5989 74.2621 80.0356 71.9432 81.0922 69.1922C82.1098 66.5376 82.8125 63.5159 83.0312 59.0811C83.2316 54.6488 83.2732 53.2408 83.2732 41.9221C83.2732 30.6033 83.2186 29.1927 83.0312 24.763C82.8125 20.3282 82.1072 17.2909 81.0922 14.6519C80.0199 11.9139 78.5963 9.582 76.28 7.27868C73.9767 4.95975 71.6577 3.52311 68.9068 2.46645C66.2521 1.43582 63.2305 0.746124 58.7956 0.527504C54.3634 0.327103 52.9554 0.285461 41.6366 0.285461V0.285461ZM41.6366 7.78099C52.7524 7.78099 54.0797 7.83564 58.4729 8.02303C62.5252 8.21302 64.7322 8.8897 66.1975 9.46228C68.152 10.2196 69.5184 11.1149 70.9967 12.5776C72.4463 14.0273 73.3416 15.4092 74.099 17.3638C74.6716 18.8291 75.3483 21.0361 75.5382 25.0884C75.7256 29.4816 75.7803 30.8115 75.7803 41.9247C75.7803 53.0378 75.7256 54.3678 75.5226 58.761C75.304 62.8132 74.6273 65.0203 74.0574 66.4855C73.2688 68.4401 72.3891 69.8065 70.9368 71.2848C69.4716 72.7344 68.0766 73.6297 66.1376 74.3871C64.6906 74.9596 62.4523 75.6363 58.3844 75.8263C53.9678 76.0137 52.6665 76.0684 41.5221 76.0684C30.3777 76.0684 29.079 76.0137 24.6572 75.8107C20.6049 75.5921 18.3692 74.9154 16.904 74.3454C14.926 73.5568 13.57 72.6771 12.1178 71.2249C10.6525 69.7596 9.72076 68.3646 9.00244 66.4257C8.41945 64.9786 7.75318 62.7404 7.53717 58.6725C7.38882 54.3079 7.31855 52.9545 7.31855 41.8622C7.31855 30.7751 7.38882 29.4191 7.53717 24.9999C7.75318 20.932 8.41945 18.699 9.00244 17.2467C9.72076 15.2661 10.6551 13.9127 12.1178 12.4475C13.5674 10.9978 14.926 10.0609 16.904 9.32694C18.3692 8.75697 20.5502 8.08029 24.6181 7.87728C29.0348 7.71852 30.3361 7.66127 41.4648 7.66127L41.6366 7.78099ZM41.6366 20.552C29.8181 20.552 20.2613 30.1218 20.2613 41.9273C20.2613 53.7457 29.8312 63.3025 41.6366 63.3025C53.4551 63.3025 63.0119 53.7327 63.0119 41.9273C63.0119 30.1088 53.4421 20.552 41.6366 20.552V20.552ZM41.6366 55.807C33.9641 55.807 27.7569 49.5998 27.7569 41.9273C27.7569 34.2548 33.9641 28.0475 41.6366 28.0475C49.3091 28.0475 55.5163 34.2548 55.5163 41.9273C55.5163 49.5998 49.3091 55.807 41.6366 55.807V55.807ZM68.8704 19.6984C68.8704 22.4649 66.6191 24.698 63.8655 24.698C61.0989 24.698 58.8659 22.4623 58.8659 19.6984C58.8659 16.9474 61.1146 14.7091 63.8655 14.7091C66.6165 14.7091 68.8704 16.9474 68.8704 19.6984V19.6984Z" fill="url(#paint0_linear_2_245)"/>
<defs>
<linearGradient id="paint0_linear_2_245" x1="41.6366" y1="0.285461" x2="41.6366" y2="83.5587" gradientUnits="userSpaceOnUse">
<stop stop-color="white"/>
<stop offset="1" stop-color="white" stop-opacity="0"/>
</linearGradient>
</defs>
</svg>
