<svg width="84" height="84" viewBox="0 0 84 84" fill="none" xmlns="http://www.w3.org/2000/svg">
<path d="M41.6366 0.368408C18.7287 0.368408 0 19.0971 0 42.005C0 64.913 18.7287 83.6416 41.6366 83.6416C64.5445 83.6416 83.2732 64.913 83.2732 42.005C83.2732 19.0971 64.7449 0.368408 41.6366 0.368408ZM60.7894 60.5333C59.9593 61.7798 58.4968 62.1988 57.2503 61.3582C47.4657 55.3287 35.1855 54.0796 20.6023 57.4027C19.1528 57.8321 17.9037 56.7912 17.4822 55.5291C17.0762 54.0796 18.1067 52.8331 19.3532 52.4142C35.1855 48.8751 48.9282 50.3245 59.7433 56.9942C61.2084 57.6187 61.4088 59.2842 60.7868 60.5333H60.7894ZM65.7884 49.0806C64.7449 50.5457 62.8739 51.1703 61.4088 50.1242C50.1747 43.2515 33.0959 41.1801 19.9908 45.3385C18.3227 45.7445 16.4387 44.9196 16.0327 43.2489C15.6137 41.5834 16.4387 39.7124 18.1067 39.2934C33.3145 34.7108 52.0432 37.0138 64.9479 44.917C66.2074 45.5415 66.832 47.626 65.7884 49.078V49.0806ZM66.21 37.425C52.8733 29.5062 30.6029 28.6813 17.9037 32.6394C15.8193 33.2613 13.7427 32.0148 13.1181 30.1308C12.4962 28.0568 13.7427 25.9697 15.6137 25.3452C30.4025 20.9707 54.7547 21.8087 70.1681 30.9687C72.0391 32.0122 72.6585 34.5078 71.6176 36.3789C70.574 37.844 68.0784 38.4633 66.2074 37.4224L66.21 37.425Z" fill="url(#paint0_linear_4_266)"/>
<defs>
<linearGradient id="paint0_linear_4_266" x1="41.6366" y1="0.368408" x2="41.6366" y2="83.6416" gradientUnits="userSpaceOnUse">
<stop stop-color="white"/>
<stop offset="1" stop-color="white" stop-opacity="0"/>
</linearGradient>
</defs>
</svg>
