<svg width="84" height="83" viewBox="0 0 84 83" fill="none" xmlns="http://www.w3.org/2000/svg">
<path d="M41.6392 0.834451C18.6361 0.834451 0 19.4862 0 42.4737C0 60.8808 11.9296 76.4825 28.463 81.9867C30.5528 82.3796 31.3075 81.0914 31.3075 79.9776C31.3075 78.9886 31.2841 76.3732 31.2684 72.9015C19.6797 75.4103 17.2386 67.3036 17.2386 67.3036C15.3414 62.5047 12.6037 61.2165 12.6037 61.2165C8.83532 58.6427 12.9029 58.6973 12.9029 58.6973C17.0773 58.981 19.2737 62.9784 19.2737 62.9784C22.9874 69.3492 29.0173 67.5066 31.4038 66.4344C31.7681 63.7513 32.8533 61.9062 34.0348 60.8782C24.7909 59.8346 15.0708 56.2562 15.0708 40.3006C15.0708 35.7437 16.6843 32.0326 19.3518 29.1179C18.8912 28.0743 17.4807 23.8323 19.7188 18.0965C19.7188 18.0965 23.2034 16.9853 31.1695 22.3671C34.5033 21.4433 38.0426 20.9826 41.5794 20.9592C45.1187 20.9826 48.6554 21.4459 51.9891 22.3671C59.9084 16.9853 63.3905 18.0965 63.3905 18.0965C65.626 23.8323 64.2155 28.0717 63.8095 29.1179C66.451 32.0326 68.0645 35.7463 68.0645 40.3006C68.0645 56.2927 58.3313 59.819 49.077 60.8365C50.524 62.0831 51.8798 64.6465 51.8798 68.5372C51.8798 74.1064 51.8278 78.5931 51.8278 79.9489C51.8278 81.0316 52.5565 82.3328 54.7009 81.9138C71.3566 76.4669 83.2732 60.8522 83.2732 42.4711C83.2732 19.4836 64.6371 0.831848 41.634 0.831848L41.6392 0.834451Z" fill="url(#paint0_linear_2_257)"/>
<defs>
<linearGradient id="paint0_linear_2_257" x1="41.6366" y1="0.831848" x2="41.6366" y2="82.0589" gradientUnits="userSpaceOnUse">
<stop stop-color="white"/>
<stop offset="1" stop-color="white" stop-opacity="0"/>
</linearGradient>
</defs>
</svg>
