<svg width="84" height="84" viewBox="0 0 84 84" fill="none" xmlns="http://www.w3.org/2000/svg">
<path d="M70.9384 71.0258H58.6217V51.6986C58.6217 47.09 58.5255 41.1672 52.1811 41.1672C45.7586 41.1672 44.7802 46.1662 44.7802 51.3577V71.0232H32.4479V31.2837H44.2935V36.7043H44.4523C46.1073 33.5737 50.1331 30.2818 56.1392 30.2818C68.6327 30.2818 70.9514 38.5076 70.9514 49.203V71.0232L70.9384 71.0258ZM18.5153 25.8527C14.5416 25.8527 11.3564 22.6389 11.3564 18.6808C11.3564 14.7357 14.5546 11.5271 18.5153 11.5271C22.476 11.5271 25.6846 14.7357 25.6846 18.6808C25.6846 22.6389 22.476 25.8527 18.5153 25.8527V25.8527ZM24.6931 71.0258H12.3348V31.2863H24.6931V71.0258ZM77.1214 0.0588379H6.1414C2.75062 0.0588379 0 2.7418 0 6.06232V77.3312C0 80.6517 2.75062 83.3346 6.1414 83.3346H77.1084C80.494 83.3346 83.2732 80.6517 83.2732 77.3312V6.06232C83.2732 2.7418 80.494 0.0588379 77.1084 0.0588379L77.1214 0.0588379Z" fill="url(#paint0_linear_2_251)"/>
<defs>
<linearGradient id="paint0_linear_2_251" x1="41.6366" y1="0.0588379" x2="41.6366" y2="83.3346" gradientUnits="userSpaceOnUse">
<stop stop-color="white"/>
<stop offset="1" stop-color="white" stop-opacity="0"/>
</linearGradient>
</defs>
</svg>
