<svg width="84" height="84" viewBox="0 0 84 84" fill="none" xmlns="http://www.w3.org/2000/svg">
<path d="M83.2732 42.2445C83.2732 19.2428 64.6226 0.607849 41.6366 0.607849C18.635 0.607849 0 19.2428 0 42.2445C0 63.0211 15.2208 80.2483 35.1309 83.3684V54.2826H24.5578V42.2471H35.1309V33.0688C35.1309 22.6362 41.3373 16.8747 50.8513 16.8747C55.4079 16.8747 60.1779 17.6867 60.1779 17.6867V27.9319H54.9187C49.7557 27.9319 48.1423 31.1457 48.1423 34.4376V42.2445H59.6887L57.8332 54.28H48.1423V83.3658C68.0368 80.2457 83.2732 63.0185 83.2732 42.2419V42.2445Z" fill="url(#paint0_linear_2_254)"/>
<defs>
<linearGradient id="paint0_linear_2_254" x1="41.6366" y1="0.607849" x2="41.6366" y2="83.3684" gradientUnits="userSpaceOnUse">
<stop stop-color="white"/>
<stop offset="1" stop-color="white" stop-opacity="0"/>
</linearGradient>
</defs>
</svg>
