<svg width="1902" height="1742" viewBox="0 0 1902 1742" fill="none" xmlns="http://www.w3.org/2000/svg">
<path d="M637.581 856C876.581 999 746.347 1378 382.347 1446.5C109.847 1446.5 174.08 1229.5 30.5802 1051.5C-112.92 873.5 297.581 352.5 254.581 553.5C211.581 754.5 450.581 730.5 637.581 856Z" fill="#CFF5E7"/>
<path d="M1357.85 988.5C897.766 1645.5 683.347 1506 789.928 1177C896.509 848 684.766 782.5 417.347 685.5C149.928 588.5 450.508 420.821 789.928 496C1129.35 571.179 1444.86 864.252 1357.85 988.5Z" fill="#3C4859"/>
<path d="M1901.35 411.5C1901.35 638.765 1675.35 1291 1478.85 879.5C1365.91 643 1086.35 411.5 618.347 411.5C308.847 392.5 1223 0 1464.35 0C1705.7 0 1901.35 184.235 1901.35 411.5Z" fill="#C5C9CE"/>
<path d="M1697.5 1092.5C1623.5 1258 1630 1289 1545.5 1253.5C1461 1218 1483 1212 1416.5 1143C1350 1074 1245 1176 1364 1052C1483 927.997 1497 958.502 1566 1035C1635 1111.5 1771.5 927.002 1697.5 1092.5Z" fill="#CFF5E7"/>
<path d="M983 1448.5C1068 1401.5 1167.37 1291 1266.5 1174.5C1365.63 1058 1402 1229.5 1520.5 1263C1639 1296.5 1430.5 1288 1327.5 1304C1222.25 1358.04 1130.01 1484.09 1090.5 1557.5C1009.5 1708 1063 1553 1040 1524.5C1017 1496 898 1495.5 983 1448.5Z" fill="#3C4859"/>
<path d="M898.5 1556C1096.5 1515 989.5 1671.5 870.5 1720.5C751.5 1769.5 647 1720.5 524.5 1699.5C91.0005 1508.22 440.5 1556 699.5 1378C753.891 1340.62 700.5 1597 898.5 1556Z" fill="#D9D9D9"/>
</svg>
